<?xml version="1.0" encoding="UTF-8" standalone="no"?>
<svg
   viewBox="0 0 11286.56 2337.02"
   version="1.1"
   id="svg105"
   sodipodi:docname="smartfactor_grey_logo.svg"
   inkscape:version="1.2.2 (732a01da63, 2022-12-09)"
   xmlns:inkscape="http://www.inkscape.org/namespaces/inkscape"
   xmlns:sodipodi="http://sodipodi.sourceforge.net/DTD/sodipodi-0.dtd"
   xmlns:xlink="http://www.w3.org/1999/xlink"
   xmlns="http://www.w3.org/2000/svg"
   xmlns:svg="http://www.w3.org/2000/svg">
  <sodipodi:namedview
     id="namedview107"
     pagecolor="#ffffff"
     bordercolor="#666666"
     borderopacity="1.0"
     inkscape:pageshadow="2"
     inkscape:pageopacity="0.0"
     inkscape:pagecheckerboard="0"
     showgrid="false"
     inkscape:zoom="0.04"
     inkscape:cx="4725"
     inkscape:cy="1537.5"
     inkscape:window-width="1920"
     inkscape:window-height="1001"
     inkscape:window-x="-9"
     inkscape:window-y="-9"
     inkscape:window-maximized="1"
     inkscape:current-layer="svg105"
     inkscape:showpageshadow="2"
     inkscape:deskcolor="#d1d1d1" />
  <defs
     id="defs41">
    <style
       id="style2">.cls-1{fill:url(#linear-gradient);}.cls-2{fill:url(#linear-gradient-2);}.cls-3{fill:url(#linear-gradient-3);}.cls-4{fill:url(#linear-gradient-4);}.cls-5{fill:url(#linear-gradient-5);}.cls-6{fill:url(#linear-gradient-6);}.cls-7{fill:url(#linear-gradient-7);}.cls-8{fill:url(#linear-gradient-8);}.cls-9{fill:url(#linear-gradient-9);}.cls-10{fill:url(#linear-gradient-10);}.cls-11{fill:url(#linear-gradient-11);}.cls-12{fill:url(#linear-gradient-12);}.cls-13{fill:url(#linear-gradient-13);}.cls-14{fill:#039168;}.cls-15{fill:#e33283;}.cls-16{fill:#0ba8d5;}.cls-17{fill:#283377;}.cls-18{fill:#c9d30a;}.cls-19{fill:#941c80;}.cls-20{fill:#fff;}</style>
    <linearGradient
       id="linear-gradient"
       x1="2086.09"
       y1="1983.27"
       x2="2056.36"
       y2="1335.1"
       gradientUnits="userSpaceOnUse">
      <stop
         offset="0"
         stop-color="#a6c721"
         id="stop4" />
      <stop
         offset="1"
         stop-color="#e1de05"
         id="stop6" />
    </linearGradient>
    <linearGradient
       id="linear-gradient-2"
       x1="1116.65"
       y1="1872.85"
       x2="1107.13"
       y2="1665.32"
       gradientUnits="userSpaceOnUse">
      <stop
         offset="0"
         stop-color="#d4374b"
         id="stop9" />
      <stop
         offset="1"
         stop-color="#a14881"
         id="stop11" />
    </linearGradient>
    <linearGradient
       id="linear-gradient-3"
       x1="930.37"
       y1="739.48"
       x2="862.53"
       y2="1442.53"
       xlink:href="#linear-gradient" />
    <linearGradient
       id="linear-gradient-4"
       x1="639.17"
       y1="2102.96"
       x2="587.73"
       y2="981.56"
       gradientUnits="userSpaceOnUse">
      <stop
         offset="0"
         stop-color="#4598d3"
         id="stop15" />
      <stop
         offset="1"
         stop-color="#76c8dd"
         id="stop17" />
    </linearGradient>
    <linearGradient
       id="linear-gradient-5"
       x1="1571.98"
       y1="1866.55"
       x2="1529.9"
       y2="949.06"
       xlink:href="#linear-gradient" />
    <linearGradient
       id="linear-gradient-6"
       x1="428.69"
       y1="2045.58"
       x2="385.15"
       y2="1096.28"
       gradientUnits="userSpaceOnUse">
      <stop
         offset="0"
         stop-color="#fdd840"
         id="stop21" />
      <stop
         offset="1"
         stop-color="#f6a01e"
         id="stop23" />
    </linearGradient>
    <linearGradient
       id="linear-gradient-7"
       x1="1883.15"
       y1="2037.84"
       x2="1830.05"
       y2="880.33"
       xlink:href="#linear-gradient-4" />
    <linearGradient
       id="linear-gradient-8"
       x1="1010.21"
       y1="1809.44"
       x2="1010.21"
       y2="1087.66"
       gradientUnits="userSpaceOnUse">
      <stop
         offset="0"
         stop-color="#666668"
         id="stop27" />
      <stop
         offset="1"
         stop-color="#b4afa3"
         id="stop29" />
    </linearGradient>
    <linearGradient
       id="linear-gradient-9"
       x1="656.37"
       y1="2023.84"
       x2="656.37"
       y2="1057.82"
       xlink:href="#linear-gradient-8" />
    <linearGradient
       id="linear-gradient-10"
       x1="1964.37"
       y1="1889.69"
       x2="1964.37"
       y2="1063.71"
       xlink:href="#linear-gradient-8" />
    <linearGradient
       id="linear-gradient-11"
       x1="1805.83"
       y1="2076.34"
       x2="1805.83"
       y2="1550.58"
       xlink:href="#linear-gradient-8" />
    <linearGradient
       id="linear-gradient-12"
       x1="1289.79"
       y1="1881.26"
       x2="1237.56"
       y2="742.66"
       gradientUnits="userSpaceOnUse">
      <stop
         offset="0"
         stop-color="#b163a4"
         id="stop35" />
      <stop
         offset="0.99"
         stop-color="#8368aa"
         id="stop37" />
    </linearGradient>
    <linearGradient
       id="linear-gradient-13"
       x1="1383.43"
       y1="1796.67"
       x2="1383.43"
       y2="1122.44"
       xlink:href="#linear-gradient-8" />
  </defs>
  <g
     id="Warstwa_2"
     data-name="Warstwa 2"
     style="fill-opacity:0.94720495;fill:#4d4d4d;opacity:0.2">
    <g
       id="Layer_1"
       data-name="Layer 1"
       style="fill-opacity:0.94720495;fill:#4d4d4d">
      <polygon
         class="cls-1"
         points="2167.65 1250.6 1970.69 1250.6 1970.69 1978.04 2167.65 1716.3 2167.65 1250.6"
         id="polygon43"
         style="fill-opacity:0.94720495;fill:#4d4d4d" />
      <rect
         class="cls-2"
         x="1082.97"
         y="1638.12"
         width="56.4"
         height="230.34"
         id="rect45"
         style="fill-opacity:0.94720495;fill:#4d4d4d" />
      <polygon
         class="cls-3"
         points="859.45 1399.1 991.19 1454.35 991.19 1049.93 957.53 1049.93 957.53 1047.02 931.13 970.95 893.44 970.95 893.44 870 868.36 870 868.36 970.95 830.68 970.95 806.1 1049.93 770.61 1049.93 770.61 2200.52 859.45 2200.52 859.45 2055.38 859.45 2055.38 859.45 1399.1"
         id="polygon47"
         style="fill-opacity:0.94720495;fill:#4d4d4d" />
      <polygon
         class="cls-4"
         points="507.25 832.25 507.25 1454.94 641.67 1454.94 641.67 2082.74 683.07 2082.74 683.07 832.25 507.25 832.25"
         id="polygon49"
         style="fill-opacity:0.94720495;fill:#4d4d4d" />
      <polygon
         class="cls-5"
         points="1453.31 827.41 1453.31 1577.79 1479.26 1577.79 1479.26 1851.4 1577.66 1851.4 1577.66 1170.17 1629.74 1170.17 1629.74 827.41 1453.31 827.41"
         id="polygon51"
         style="fill-opacity:0.94720495;fill:#4d4d4d" />
      <polygon
         class="cls-6"
         points="451.81 1454.94 481.28 1454.94 481.28 1102.15 326.73 969.44 326.73 1912.61 451.81 2029.11 451.81 1454.94"
         id="polygon53"
         style="fill-opacity:0.94720495;fill:#4d4d4d" />
      <polygon
         class="cls-7"
         points="1941.56 935.45 1941.56 816.31 1895.74 816.31 1895.74 724.69 1780.21 724.69 1780.21 816.31 1734.4 816.31 1734.4 935.45 1695.16 935.45 1695.16 1170.17 1761.93 1170.17 1761.93 2024.61 1797.33 1993.79 1808.7 1993.79 1808.7 1404.69 1937.14 1404.69 1937.14 1973.73 1897.77 1993.79 1941.56 1993.79 1941.56 1868.21 1980.76 1834.08 1980.76 935.45 1941.56 935.45"
         id="polygon55"
         style="fill-opacity:0.94720495;fill:#4d4d4d" />
      <polygon
         class="cls-8"
         points="937.62 1180.73 937.62 1431.88 1032.54 1471.69 1032.54 1868.03 1082.81 1868.03 1082.81 1180.73 937.62 1180.73"
         id="polygon57"
         style="fill-opacity:0.94720495;fill:#4d4d4d" />
      <polygon
         class="cls-9"
         points="743.61 1275.08 743.61 1181.58 705.02 1181.58 705.02 1109.67 607.71 1109.67 607.71 1181.58 569.11 1181.58 569.11 1275.08 536.09 1275.08 536.09 1454.94 641.67 1454.94 641.67 2079.75 743.61 2079.75 776.64 2079.75 776.64 1275.08 743.61 1275.08"
         id="polygon59"
         style="fill-opacity:0.94720495;fill:#4d4d4d" />
      <polygon
         class="cls-10"
         points="1855.32 1096.74 1855.32 1404.69 1937.14 1404.69 1937.14 1956.74 1948.32 1948.88 1948.32 1883.44 2073.43 1883.44 2073.43 1210.07 1855.32 1096.74"
         id="polygon61"
         style="fill-opacity:0.94720495;fill:#4d4d4d" />
      <polygon
         class="cls-11"
         points="1808.7 2039.16 1808.7 1571.6 1762.02 1571.6 1762.02 2119.01 1849.63 2018.31 1808.7 2039.16"
         id="polygon63"
         style="fill-opacity:0.94720495;fill:#4d4d4d" />
      <polygon
         class="cls-12"
         points="1166.56 1784.39 1300.57 1784.39 1300.57 1577.79 1380.14 1577.79 1380.14 580.77 1139.19 688.16 1139.19 1868.41 1166.56 1868.41 1166.56 1784.39"
         id="polygon65"
         style="fill-opacity:0.94720495;fill:#4d4d4d" />
      <polygon
         class="cls-13"
         points="1300.57 1784.39 1300.57 1577.79 1479.26 1577.79 1479.26 1851.4 1525.3 1851.4 1577.99 1850.94 1577.49 1750.28 1524.38 1750.28 1524.38 1511.63 1478.31 1511.63 1478.31 1381.24 1424.49 1381.24 1424.49 1280.95 1288.74 1280.95 1288.74 1381.24 1234.94 1381.24 1234.94 1511.63 1188.88 1511.63 1188.88 1784.39 1188.88 1784.39 1300.57 1784.39"
         id="polygon67"
         style="fill-opacity:0.94720495;fill:#4d4d4d" />
      <path
         class="cls-14"
         d="M1937.14,1753.17v191.74c202.61-205.63,314.22-477.4,314.22-766.4,0-189.41-48.89-370.26-141-530.07q-51.74,35.92-103,72.58c77.6,138.59,118.77,294.49,118.77,457.49C2126.15,1388.24,2059.84,1587.77,1937.14,1753.17Z"
         id="path69"
         style="fill-opacity:0.94720495;fill:#4d4d4d" />
      <path
         class="cls-15"
         d="M859.44,2217.48v-119C716.11,2052,584.77,1972,475.14,1862.38A976.12,976.12,0,0,1,345,1701.28c-32.49,21.12-65.6,41.24-98.61,61.68l-7.61,4.72a1102.5,1102.5,0,0,0,147.81,183.24c147.53,147.53,329.86,247.56,528.45,292.64.71-8.68,1.25-17.38,1.76-26.08Z"
         id="path71"
         style="fill-opacity:0.94720495;fill:#4d4d4d" />
      <path
         class="cls-16"
         d="M325.64,1686.3c27.2-16.82,54.12-33.78,80.8-51.15-90.26-142.23-138.59-307.34-138.59-479.89,0-239.89,93.42-465.42,263-635s395.16-263,635.05-263c210.15,0,436.71,91.87,606.06,245.76,72.54,65.93,132.47,140.86,178.82,222.31q5.76-4.23,11.56-8.37,41.83-29.67,83.93-59c-51.52-88.12-117.23-169.26-196.12-241A1096.4,1096.4,0,0,0,1524.94,213c-117.5-47.19-241.64-72.13-359-72.13-271,0-525.68,105.51-717.27,297.1s-297.1,446.32-297.1,717.27c0,194.86,54.57,381.32,156.48,542Z"
         id="path73"
         style="fill-opacity:0.94720495;fill:#4d4d4d" />
      <path
         class="cls-17"
         d="M13.46,991l116.59,17c66.77-433.7,399.71-780.77,826.19-868.61L929.8,24.55C456.44,123.2,87.21,509.1,13.46,991Z"
         id="path75"
         style="fill-opacity:0.94720495;fill:#4d4d4d" />
      <path
         class="cls-18"
         d="M2337,1168.51C2337,524.19,1812.83,0,1168.51,0a1169.24,1169.24,0,0,0-238.4,24.48l26.53,114.78a1051.45,1051.45,0,0,1,211.87-21.48c579.37,0,1050.72,471.36,1050.72,1050.73,0,354.5-176.65,668.33-446.36,858.72l64.51,98.85C2139.24,1914.6,2337,1564.24,2337,1168.51Z"
         id="path77"
         style="fill-opacity:0.94720495;fill:#4d4d4d" />
      <path
         class="cls-19"
         d="M1168.51,2337c248.3,0,478.72-77.91,668.22-210.48l-63.92-99.26c-171.07,120.73-379.47,192-604.3,192-579.37,0-1050.73-471.35-1050.73-1050.72,0-21.71.88-43.21,2.18-64.59L3.59,1089.81S0,1137.62,0,1168.51C0,1812.83,524.19,2337,1168.51,2337Z"
         id="path79"
         style="fill-opacity:0.94720495;fill:#4d4d4d" />
      <path
         class="cls-20"
         d="M3418.33,934.05q-82.41-30.22-135.3-30.23-33.21,0-52.27,13.8t-19.07,40.09q0,36.81,36.9,57.18t116.85,44q91,27.6,150.06,55.86t102.71,86.09q43.64,57.86,43.66,152.48,0,96-47.35,162.32t-127.92,99.24q-80.58,32.83-180.2,32.86-110.7,0-222-40.09T2891.9,1497.93l95.94-207.68q65.17,60.48,159.28,101.87t161.74,41.4q41.8,0,65.19-17.08t23.37-48.64q0-38.1-38.13-58.49t-118.08-42.72q-89.79-24.94-148.82-51.91t-102.09-83.47q-43.08-56.49-43.05-148.53,0-89.35,44.28-155.75t124.84-101.87q80.55-35.49,187.57-35.49,97.16,0,193.11,29.58t167.28,78.2l-94.71,210.31Q3500.73,964.28,3418.33,934.05Z"
         id="path81"
         style="fill-opacity:0.94720495;fill:#4d4d4d" />
      <path
         class="cls-20"
         d="M3657,710.6h274.29l231.24,511.31,230-511.31h274.29V1632H4441.69V1085.21l-196.8,456.09H4078.84L3882,1085.21V1632H3657Z"
         id="path83"
         style="fill-opacity:0.94720495;fill:#4d4d4d" />
      <path
         class="cls-20"
         d="M5344.5,1632l-50.43-147.21H4946L4894.32,1632H4631.1l367.77-921.4h263.22L5617.55,1632Zm-327.18-347h209.1L5123.1,984Z"
         id="path85"
         style="fill-opacity:0.94720495;fill:#4d4d4d" />
      <path
         class="cls-20"
         d="M6087.41,1632,5973,1383.58h-135.3V1632H5581.88V710.6h402.21q173.43,0,268.75,85.44t95.33,241.85q0,101.23-37.52,175.47T6203,1331l174.66,301Zm-249.69-458.73h146.37q57.8,0,89.17-32.86t31.37-94.63q0-60.45-31.37-92.67t-89.17-32.2H5837.72Z"
         id="path87"
         style="fill-opacity:0.94720495;fill:#4d4d4d" />
      <path
         class="cls-20"
         d="M6310,710.6H7067.7V928.79H6816.78V1632H6559.71V928.79H6310Z"
         id="path89"
         style="fill-opacity:0.94720495;fill:#4d4d4d" />
      <path
         class="cls-20"
         d="M7112,713.23h538.74v81.5H7196.84V1148.3h404.67v81.49H7196.84V1632H7112Z"
         id="path91"
         style="fill-opacity:0.94720495;fill:#4d4d4d" />
      <path
         class="cls-20"
         d="M8314.91,1632l-102.09-244.48H7735.59L7634.73,1632h-91l387.45-918.77h88.56L8407.16,1632ZM7768.8,1306h410.81L7973,809.18Z"
         id="path93"
         style="fill-opacity:0.94720495;fill:#4d4d4d" />
      <path
         class="cls-20"
         d="M8934.82,815.76q-67.65-30.22-140.22-30.24-99.63,0-182.65,51.27t-131.61,140q-48.6,88.73-48.58,193.87t48.58,193.22q48.57,88.08,131.61,140t182.65,51.92q71.32,0,139-29.57A392.87,392.87,0,0,0,9054.13,1444l51.66,59.15a492.79,492.79,0,0,1-146.37,99.89q-82.41,36.81-168.51,36.8-121.77,0-223.86-63.09t-161.74-170.87q-59.67-107.76-59.65-235.28t60.27-234q60.24-106.47,163-168.9t224.47-62.43a423.34,423.34,0,0,1,168.51,34.83,449.7,449.7,0,0,1,142.68,96.61l-50.43,63.09A377.1,377.1,0,0,0,8934.82,815.76Z"
         id="path95"
         style="fill-opacity:0.94720495;fill:#4d4d4d" />
      <path
         class="cls-20"
         d="M9071.34,711.92h653.13v82.81H9440.34V1632h-84.87V794.73H9071.34Z"
         id="path97"
         style="fill-opacity:0.94720495;fill:#4d4d4d" />
      <path
         class="cls-20"
         d="M10309.33,767.78q102.69,62.44,163,168.9t60.26,234q0,127.52-60.26,235.28t-163,170.87q-102.72,63.09-225.7,63.09t-225.71-63.09q-102.7-63.09-163-170.87t-60.27-235.28q0-127.47,60.27-234t163-168.9q102.69-62.41,225.71-62.43T10309.33,767.78ZM9902.82,838.1Q9819.16,889.37,9770,977.43t-49.2,193.21q0,105.18,49.2,194.53t132.84,141.3q83.63,51.94,182,51.92,97.14,0,180.19-51.92t132.23-141.3q49.17-89.36,49.2-194.53t-49.2-193.21q-49.22-88-132.23-139.33t-180.19-51.26Q9986.43,786.84,9902.82,838.1Z"
         id="path99"
         style="fill-opacity:0.94720495;fill:#4d4d4d" />
      <path
         class="cls-20"
         d="M11188.16,1632l-185.73-299.69q-39.39,2.65-60.27,2.63H10706V1632h-84.87V713.23h321q161.11,0,249.07,79.52t88,225.42q0,114.36-51.66,190.59t-147.6,106.47L11286.56,1632Zm-246-378.55q123,0,189.42-59.8T11198,1020.8q0-110.4-66.42-168.24t-189.42-57.83H10706v458.72Z"
         id="path101"
         style="fill-opacity:0.94720495;fill:#4d4d4d" />
    </g>
  </g>
</svg>
